<svg width="109" height="33" viewBox="0 0 109 33" fill="none" xmlns="http://www.w3.org/2000/svg">
<path d="M10.9663 22.9963C9.39967 19.4584 7.83306 15.6155 6.26645 11.4677C7.89331 8.60074 9.52018 5.91682 11.2073 3.53789C11.5086 3.1719 11.6893 3.04991 12.0509 3.1109V2.74492C10.7253 2.50092 9.33941 2.19593 8.01382 1.95194V2.31793C8.25484 2.37893 8.4356 2.56192 8.4356 2.80591C8.4356 2.92791 8.4356 3.1719 8.25484 3.47689C6.50746 6.16081 4.76009 9.08872 3.01271 12.3216V2.50092C3.01271 1.40296 3.31399 1.21996 3.61526 1.28096V0.853975C2.41017 0.548984 1.20509 0.304991 0 0V0.426985C0.301271 0.487983 0.602543 0.853971 0.602543 2.01294V25.5582C0.602543 26.6562 0.361526 27.0222 0 27.1442V27.5712C1.20509 27.2662 2.41017 26.9612 3.61526 26.7172V26.2902C3.31399 26.3512 3.01271 26.1072 3.01271 25.0702V17.3845C3.555 16.2865 4.15755 15.1885 4.69983 14.1516C6.02543 17.7505 7.29077 21.0444 8.61636 24.1553C8.73687 24.5213 8.79712 24.5823 8.79712 24.8262C8.79712 25.0702 8.73687 25.1922 8.31509 25.2532V25.6192C9.64069 25.3142 10.9663 25.0702 12.3521 24.8262V24.4603C11.6893 24.4603 11.3881 23.9723 10.9663 22.9963ZM23.1376 4.87985C23.4389 4.94085 23.7402 5.18484 23.7402 5.91682V17.2015C23.7402 19.1534 22.7159 20.8004 20.2454 21.1054C17.775 21.4104 16.7507 19.8244 16.7507 17.6285V4.94085C16.7507 4.08688 17.052 3.90388 17.3532 3.96488V3.65989C16.2084 3.47689 15.0033 3.2329 13.8585 3.04991V3.4159C14.1598 3.47689 14.461 3.78188 14.461 4.63586V17.8725C14.461 21.8373 16.2687 24.3993 20.3057 23.7283C24.3427 23.0573 26.1504 20.4344 26.1504 17.2015V6.16081C26.1504 5.42883 26.4516 5.24584 26.7529 5.30684V5.00185C25.5478 4.87985 24.403 4.69686 23.1979 4.51386V4.87985H23.1376ZM31.6938 10.0647C31.6938 8.66174 32.4771 7.68577 34.8872 7.86876C36.7551 7.99076 38.9243 8.90573 38.9243 10.0037V10.2477C39.0448 10.3087 39.105 10.3087 39.2255 10.3697C39.7076 9.33272 40.1896 8.29575 40.7319 7.31978C40.6716 7.25878 40.6114 7.25878 40.4909 7.19778C40.2499 7.38077 40.0691 7.38078 39.9486 7.38078C39.7076 7.38078 39.2255 7.01479 38.4422 6.6488C37.6589 6.28281 36.5743 5.85582 34.9475 5.67283C31.6335 5.36783 29.2233 6.83179 29.2233 10.0037C29.2233 16.6525 38.2615 13.1146 38.2615 16.9575C38.2615 18.6654 36.9961 19.5194 35.1282 19.6414C33.0193 19.7634 30.4284 18.7264 30.4284 17.5065V17.1405C30.3682 17.0795 30.2476 17.0795 30.1874 17.0185C29.6451 18.1775 29.1631 19.2754 28.6208 20.4954C28.681 20.5564 28.8015 20.5564 28.8618 20.6174C28.9221 20.4954 29.1028 20.4344 29.1631 20.3734C29.4041 20.3734 31.0912 22.2033 35.0077 21.8373C38.3217 21.5323 40.6114 19.5194 40.6114 16.7745C40.8524 10.7357 31.6938 13.6636 31.6938 10.0647ZM46.3958 20.7394C46.0945 20.7394 45.7933 20.6174 45.7933 20.0074V10.1257H45.8535C47.2996 13.7856 48.7457 17.3235 50.1918 20.8614C51.5777 17.2625 53.0238 13.7246 54.4096 10.1867H54.4699V19.8244C54.4699 20.4344 54.1686 20.5564 53.8673 20.5564V20.8004H57.3621V20.5564C57.0608 20.5564 56.7595 20.3734 56.7595 19.8244V7.68577C56.7595 7.07578 57.0608 6.95379 57.3621 6.95379V6.7098H53.2648V6.95379C53.5058 7.01479 53.6263 7.07579 53.6263 7.25878C53.6263 7.38078 53.6263 7.44178 53.5661 7.56377C52.4212 10.2477 51.3367 12.9926 50.1918 15.7375C49.1675 13.1146 48.1432 10.4307 47.1189 7.74676C46.9983 7.50277 46.9381 7.31978 46.9381 7.19778C46.9381 7.07578 46.9381 6.95379 47.2394 6.95379V6.7098L43.0818 6.5268V6.77079C43.3831 6.77079 43.6844 6.95379 43.6844 7.56377V20.1294C43.6844 20.7394 43.3831 20.9224 43.0818 20.9224V21.1664C44.2266 21.1054 45.3112 21.0444 46.4561 21.0444V20.7394H46.3958ZM63.267 20.7394C62.9657 20.7394 62.6645 20.5564 62.6645 19.9464V7.56377C62.6645 6.95379 62.9657 6.83179 63.267 6.77079V6.5268C62.0619 6.5878 60.7966 6.5878 59.5915 6.6488V6.89279C59.8928 6.89279 60.194 7.01479 60.194 7.62477V19.8854C60.194 20.4954 59.8928 20.6174 59.5915 20.6174V20.8614C60.7966 20.8614 62.0619 20.9224 63.267 20.9834V20.7394ZM81.4035 5.12385C78.2703 5.48983 75.0768 5.79482 71.9436 6.09982C71.4013 6.16081 71.2808 5.91682 71.2808 5.67283H71.0398V8.78374H71.2808C71.2808 8.47874 71.4013 8.29575 71.9436 8.23475C73.0884 8.17375 74.2935 8.11275 75.4384 7.99076V20.7394C75.4384 21.4104 75.1371 21.5323 74.8358 21.5323V21.7763C76.0409 21.8983 77.3062 22.0203 78.5113 22.1423V21.8373C78.2101 21.7763 77.9088 21.5933 77.9088 20.9224V7.74676C79.0536 7.68577 80.2587 7.56377 81.4035 7.44177C81.9458 7.38077 82.0061 7.62477 82.0061 7.99076H82.2471V4.39187C82.1868 4.39187 82.0663 4.39186 82.0061 4.45286C82.0663 4.81885 81.9458 5.06285 81.4035 5.12385ZM93.6954 21.4104C91.3455 21.1054 89.0558 20.8614 86.7059 20.5564V14.8225C88.152 14.8225 89.5981 14.8836 91.0442 14.8836C91.5865 14.8836 91.6468 15.1885 91.6468 15.5545H91.8878V11.4067H91.6468C91.6468 11.7726 91.5263 12.0776 91.0442 12.0776C89.5981 12.1386 88.152 12.1386 86.7059 12.1996V6.89279C88.9353 6.6488 91.225 6.40481 93.4544 6.09982C93.9967 6.03882 94.0569 6.28281 94.0569 6.7098C94.1172 6.7098 94.2377 6.7098 94.298 6.6488V2.31793C94.2377 2.31793 94.1172 2.37893 94.0569 2.37893C94.0569 2.80592 93.9364 3.1109 93.4544 3.1719C90.2007 3.78188 86.8867 4.26987 83.6329 4.69686V5.00185C83.9342 4.94085 84.2355 5.12384 84.2355 5.85582V21.4713C84.2355 22.2033 83.9342 22.3863 83.6329 22.3253V22.6303C87.0072 23.0573 90.3814 23.6063 93.6954 24.2163C94.2377 24.3383 94.298 24.6433 94.298 25.0092C94.3582 25.0092 94.4787 25.0702 94.539 25.0702V20.8004C94.4787 20.8004 94.3582 20.8004 94.298 20.7394C94.3582 21.1664 94.2377 21.4713 93.6954 21.4104ZM108.397 25.6192C107.012 17.5675 105.626 10.1257 104.24 3.2329C104.18 2.92791 104.119 2.68392 104.119 2.43993C104.119 2.01294 104.24 1.70795 104.481 1.58595V1.15897C103.155 1.46396 101.83 1.76894 100.564 2.01294V2.37893C100.866 2.37893 100.926 2.62292 100.926 3.04991C100.926 3.2939 100.866 3.65989 100.805 3.84288C99.3593 10.7967 97.9735 17.2015 96.5274 23.1793C96.2863 24.2773 96.1056 24.3993 95.7441 24.3993V24.7652C96.7684 24.9482 97.853 25.1922 98.8773 25.3752V25.0092C98.6965 24.8872 98.5157 24.6433 98.5157 24.3383C98.5157 24.1553 98.576 23.8503 98.6363 23.6063C98.9978 22.1423 99.2991 20.6784 99.6606 19.2144C101.408 19.3974 103.155 19.5804 104.963 19.7634C105.264 21.2884 105.565 22.8743 105.867 24.4603C105.927 24.8872 105.987 25.3752 105.987 25.8022C105.987 26.2902 105.927 26.4732 105.626 26.5342V26.9612C106.771 27.2052 107.855 27.5102 109 27.7542V27.3272C108.638 27.0222 108.518 26.2292 108.397 25.6192ZM100.323 15.9815C100.986 12.8096 101.649 9.57671 102.312 6.16081H102.372C102.975 9.39371 103.637 12.6876 104.24 16.1035C102.975 16.1035 101.649 16.0425 100.323 15.9815ZM48.6855 28.7911C48.6855 28.0591 48.3842 26.9612 46.6368 26.9612H43.9856V32.939H45.01V30.6211H46.5766C48.3842 30.6211 48.6855 29.5231 48.6855 28.7911ZM46.6368 29.7671H45.1305V27.8152H46.6971C47.2394 27.8152 47.7214 27.9981 47.7214 28.7911C47.6611 29.5231 47.0586 29.7671 46.6368 29.7671ZM50.6136 26.9612L48.3239 32.939H49.4085L49.9508 31.3531H52.361L52.9033 32.939H54.0481L51.7584 26.9612H50.6136ZM50.2521 30.5601L51.1559 27.9982L52.0597 30.5601H50.2521ZM58.4467 30.0721C58.6274 30.0111 59.4107 29.7061 59.4107 28.5471C59.4107 27.5102 58.7479 26.9002 57.4223 26.9002H54.5904V32.878H55.6147V30.4381H57.1813C58.1454 30.4381 58.3864 30.9261 58.3864 32.024C58.3864 32.329 58.3864 32.634 58.5672 32.878H59.712C59.471 32.634 59.4107 32.024 59.4107 31.292C59.3505 30.3771 58.8082 30.1331 58.4467 30.0721ZM57.3621 29.6451H55.6147V27.7542H57.3018C57.8441 27.7542 58.3261 27.8762 58.3261 28.6691C58.3864 29.3401 58.0249 29.6451 57.3621 29.6451ZM60.4953 32.939H61.5196V26.9612H60.4953V32.939ZM66.1592 29.6451C65.8579 29.5231 64.5323 29.2181 64.4118 29.1571C63.99 29.0351 63.6888 28.7911 63.6888 28.3641C63.6888 27.7542 64.2913 27.5712 64.7734 27.5712C65.4964 27.5712 66.0387 27.8762 66.0387 28.6081H67.063C67.063 27.3882 66.0387 26.7172 64.7734 26.7172C63.6888 26.7172 62.6042 27.2662 62.6042 28.4861C62.6042 29.0961 62.9055 29.7061 63.9298 30.0111C64.7734 30.2551 65.3156 30.3771 65.7374 30.4991C65.9784 30.6211 66.2195 30.8041 66.2195 31.2311C66.2195 31.658 65.8579 32.146 64.9541 32.146C64.1106 32.146 63.4478 31.78 63.4478 30.8651H62.4234C62.4234 32.329 63.5683 33 64.8939 33C66.099 33 67.304 32.451 67.304 31.1091C67.3643 30.5601 67.0028 29.8891 66.1592 29.6451Z" fill="black"/>
</svg>
