<svg width="19" height="19" viewBox="0 0 19 19" fill="none" xmlns="http://www.w3.org/2000/svg">
<path d="M7.23068 0C9.14837 0 10.9875 0.761355 12.3435 2.11658C13.6996 3.4718 14.4614 5.30987 14.4614 7.22645C14.4614 9.0275 13.805 10.6729 12.7149 11.9292L19 18.2106L18.2102 19L11.9251 12.7185C10.6183 13.8394 8.9527 14.4547 7.23068 14.4529C5.31298 14.4529 3.47383 13.6915 2.11782 12.3363C0.761801 10.9811 0 9.14302 0 7.22645C0 5.30987 0.761801 3.4718 2.11782 2.11658C3.47383 0.761355 5.31298 0 7.23068 0ZM7.23068 1.11176C5.60801 1.11176 4.05181 1.75599 2.90441 2.90271C1.75701 4.04944 1.11241 5.60473 1.11241 7.22645C1.11241 8.84816 1.75701 10.4035 2.90441 11.5502C4.05181 12.6969 5.60801 13.3411 7.23068 13.3411C8.03414 13.3411 8.82974 13.183 9.57204 12.8757C10.3143 12.5684 10.9888 12.118 11.5569 11.5502C12.1251 10.9824 12.5757 10.3083 12.8832 9.56644C13.1907 8.82457 13.3489 8.02944 13.3489 7.22645C13.3489 6.42346 13.1907 5.62833 12.8832 4.88646C12.5757 4.14459 12.1251 3.47051 11.5569 2.90271C10.9888 2.33491 10.3143 1.88451 9.57204 1.57721C8.82974 1.26992 8.03414 1.11176 7.23068 1.11176Z" fill="black"/>
</svg>
